<svg xmlns="http://www.w3.org/2000/svg" width="44" height="44" viewBox="0 0 44 44">
    <path fill="none" d="M0 0H42V42H0z"/>
    <path fill="#d0d0d0" d="M-1592.518-76.57l-7.553-7.553a11.136 11.136 0 0 0 2.2-6.678 11.146 11.146 0 0 0-3.286-7.933 11.145 11.145 0 0 0-7.933-3.286 11.145 11.145 0 0 0-7.933 3.286 11.146 11.146 0 0 0-3.286 7.933 11.146 11.146 0 0 0 3.286 7.933 11.145 11.145 0 0 0 7.933 3.286 11.14 11.14 0 0 0 6.174-1.848l7.629 7.629a1.951 1.951 0 0 0 1.384.573 1.952 1.952 0 0 0 1.384-.573 1.958 1.958 0 0 0 .001-2.769zm-21.736-9.067a7.313 7.313 0 0 1 0-10.329 7.281 7.281 0 0 1 5.165-2.136 7.281 7.281 0 0 1 5.164 2.136 7.311 7.311 0 0 1 0 10.329 7.312 7.312 0 0 1-10.329.001z" transform="translate(1627.482 108.98)"/>
</svg>
